# xmcd
#
# Track frame offsets: 
#        150
#        11830
#        24712
#        37372
#        49135
#        59505
#        69090
#        79642
#        90360
#        102317
#        115892
#        128472
#        138000
#        148907
#        161072
#        173335
#        188120
#        199230
#        210872
#        222320
#        234507
#        244607
#
# Disc length: 3423 seconds
#
# Revision: 2
# Processed by: cddbd v1.5.2PL0 Copyright (c) Steve Scherf et al.
# Submitted via: ExactAudioCopyFreeDBPlugin 1.0
#
DISCID=2d0d5d16
DTITLE=The Shadows - Complete Singles As and Bs 1959-1980 CD2
DYEAR=2004
DGENRE=Instrumental
TTITLE0=Foot Tapper
TTITLE1=The Breeze And I
TTITLE2=Atlantis
TTITLE3=I Want You To Want Me
TTITLE4=Shinding
TTITLE5=It's Been A Blue Day
TTITLE6=Geronimo
TTITLE7=Shazam
TTITLE8=Theme For Young Lovers
TTITLE9=This Hammer
TTITLE10=The Rise And Fall Of Flingel Bunt
TTITLE11=I'ts A Man's World
TTITLE12=Rhythm And Greens
TTITLE13=The Miracle
TTITLE14=Genie With The Light Brown Lamp
TTITLE15=Little Princess
TTITLE16=Mary-Anne
TTITLE17=Chu Chi
TTITLE18=Stingray
TTITLE19=Alice In Sunderland
TTITLE20=Don't Make Me Baby Blue
TTITLE21=My Grandfathers Clock
EXTD=
EXTT0=^^HEP^^
EXTT1=
EXTT2=
EXTT3=
EXTT4=^^HEP^^
EXTT5=
EXTT6=
EXTT7=
EXTT8=
EXTT9=
EXTT10=
EXTT11=
EXTT12=
EXTT13=
EXTT14=
EXTT15=
EXTT16=
EXTT17=
EXTT18=
EXTT19=
EXTT20=
EXTT21=^^HEP^^
PLAYORDER=
